<?xml version="1.0" encoding="UTF-8"?>
<!DOCTYPE svg PUBLIC "-//W3C//DTD SVG 1.1//EN" "http://www.w3.org/Graphics/SVG/1.1/DTD/svg11.dtd">
<!-- Creator: CorelDRAW -->
<svg xmlns="http://www.w3.org/2000/svg" xml:space="preserve" width="143.894mm" height="32.9479mm" version="1.1" style="shape-rendering:geometricPrecision; text-rendering:geometricPrecision; image-rendering:optimizeQuality; fill-rule:evenodd; clip-rule:evenodd"
viewBox="0 0 13804.32 3160.82"
 xmlns:xlink="http://www.w3.org/1999/xlink"
 xmlns:xodm="http://www.corel.com/coreldraw/odm/2003">
 <defs>
  <style type="text/css">
   <![CDATA[
    .fil0 {fill:#FFF212}
    .fil2 {fill:#EC268F}
    .fil3 {fill:#00AFEF}
    .fil1 {fill:#201E1E}
    .fil4 {fill:#201E1E;fill-rule:nonzero}
   ]]>
  </style>
 </defs>
 <g id="Camada_x0020_1">
  <metadata id="CorelCorpID_0Corel-Layer"/>
  <g id="_1526380608">
   <polygon class="fil0" points="846.09,1592.63 1269.16,2376.74 1692.21,3160.82 846.09,3160.82 -0,3160.82 423.06,2376.74 "/>
   <polygon class="fil1" points="1723.16,3160.82 2146.23,2376.74 2569.29,1592.63 1723.16,1592.63 877.07,1592.63 1300.13,2376.74 "/>
   <polygon class="fil2" points="846.09,1568.19 1269.16,784.11 1692.21,0.01 846.09,0.01 -0,0.01 423.06,784.11 "/>
   <polygon class="fil3" points="1723.16,0.01 2146.23,784.11 2569.29,1568.19 1723.16,1568.19 877.07,1568.19 1300.13,784.11 "/>
   <path class="fil4" d="M3848.86 1948.91l0 -1624.76 444.89 0c96.71,0 182.98,26.31 258.8,78.92 75.42,52.22 113.34,133.07 113.34,241.76l0 983.37c0,101.36 -35.21,179.89 -105.99,236.38 -70.8,56.08 -158.62,84.33 -263.85,84.33l-447.2 0zm459.59 -295.16l0 -1035.61c0,-56.87 -34.05,-85.09 -102.12,-85.09l0 1206.97c68.07,0 102.12,-28.62 102.12,-86.26zm1264.82 295.16l-698.66 0 0 -1624.76 694.01 0 0 208.9 -336.57 0 0 438.7 303.7 0 0 197.3 -303.7 0 0 570.98 341.22 0 0 208.9zm190.93 -651.45l324.94 0 0 372.93c0,37.12 22.45,55.68 67.31,55.68 43.35,0 65,-18.56 65,-55.32l0 -192.25c0,-58.81 -39.46,-128.06 -118.01,-207.35 -152.03,-147.02 -246.41,-246.04 -283.56,-296.35 -37.12,-50.66 -55.68,-105.98 -55.68,-166.7l0 -182.23c0,-210.45 138.09,-315.67 413.91,-315.67 247.2,0 370.62,95.93 370.62,287.81l0 281.26 -324.97 0 0 -297.87c0,-32.11 -18.16,-48.36 -54.56,-48.36 -42.53,0 -63.82,30.56 -63.82,91.68l6.96 105.61c0,60.33 40.24,130.37 120.71,210.45 149.33,142.74 244.5,242.16 285.11,298.62 40.62,56.87 60.73,120.71 60.73,192.68l0 206.95c0,215.85 -138.09,323.79 -414.69,323.79 -266.55,0 -400,-98.25 -400,-294.78l0 -370.59zm1724.38 651.45l-698.66 0 0 -1624.76 694 0 0 208.9 -336.56 0 0 438.7 303.7 0 0 197.3 -303.7 0 0 570.98 341.22 0 0 208.9zm1437.36 0l-318.01 0 0 -912.2 -186.05 912.2 -246.05 0 -213.15 -912.2 0 912.2 -278.55 0 0 -1624.76 458.83 0 163.24 842.94 141.98 -842.94 477.76 0 0 1624.76zm211.04 0l0 -1624.76 420.89 0c100.58,0 188,22.81 261.88,68.47 74.29,45.65 111.42,118.75 111.42,218.96l0 225.54c0,114.12 -69.63,194.19 -208.5,241 146.63,36.36 219.74,114.49 219.74,234.81l0 315.28c0,107.17 -34.83,187.63 -104.86,240.64 -70.02,53.37 -153.58,80.07 -250.27,80.07l-450.29 0zm457.25 -1054.17l0 -276.61c0,-56.87 -33.26,-85.09 -99.81,-85.09l0 447.96c66.55,0 99.81,-28.62 99.81,-86.26zm0 759.01l0 -411.24c0,-56.86 -33.26,-85.08 -99.81,-85.08l0 582.59c66.55,0 99.81,-28.62 99.81,-86.26zm1524.75 295.16l-355.13 0 -59.97 -436.35 -157.83 0 -60.73 436.35 -355.13 0 266.16 -1624.76 456.1 0 266.52 1624.76zm-443.7 -661.5l-51.07 -485.14 -48.75 485.14 99.82 0zm1513.93 663.81l-355.52 0c-38.28,-46.02 -57.63,-176.79 -57.63,-392.24l0 -2.34 1.92 -97.48c1.94,-135.39 2.73,-204.25 2.73,-207.35 0,-55.32 -36.37,-82.77 -109.12,-82.77l0 779.87 -357.44 0 0 -1624.76 440.61 0c100.6,0 188.02,23.21 262.29,69.24 74.67,46.05 111.78,118.77 111.78,218.19l0 194.98c0,126.1 -73.48,211.21 -220.86,255.71 147.38,34.81 220.86,124.54 220.86,268.86l-4.61 177.94c0,259.96 21.66,407.34 64.98,442.16zm-408.5 -1065.75l0 -267.34c0,-56.87 -36.37,-85.09 -109.12,-85.09l0 438.7c72.75,0 109.12,-28.65 109.12,-86.26zm1485.28 1063.44l-392.24 0 -136.96 -602.33 0 602.33 -357.44 0 0 -1624.76 357.44 0 0 540.42 155.52 -540.42 331.92 0 -220.13 740.82 261.9 883.94zm538.34 0l-357.47 0 0 -1624.76 357.47 0 0 1624.76z"/>
   <path class="fil4" d="M3953.32 2313.62l96.75 449.76 109.36 -449.76 106.79 0 107.76 449.76 98.35 -449.76 90.69 0 -137.52 536.98 -108.16 0 -105.73 -436.35 -110.83 436.35 -107.75 0 -132.83 -536.98 93.11 0zm1578.15 0l0 68.44 -156.45 0c-28.85,0 -51.12,2 -67.1,5.88 -15.83,4.03 -30.05,11.01 -42.53,20.93 -17.32,13.97 -30.33,31.54 -38.78,52.86 -8.45,21.35 -13.83,49.51 -15.97,84.56l320.82 0 0 68.44 -320.82 0c-0.67,38.35 7.77,73.4 25.63,104.65 13.29,23.07 30.05,39.32 50.33,48.7 20.11,9.41 48.16,14.08 84.12,14.08l160.74 0 0 68.44 -176.45 0c-45.06,0 -81.71,-5.09 -109.76,-15.29 -50.19,-18.39 -87.08,-58.39 -110.3,-120.09 -12.62,-33.01 -18.93,-73.94 -18.93,-122.63 0,-64.83 10.2,-117.28 30.62,-157.41 22.78,-44.27 51.79,-75.68 86.94,-94.07 35.01,-18.36 83.85,-27.49 146.51,-27.49l151.35 0zm610.58 536.98l0 -536.98 256.3 0c41.18,0 72.44,2.81 93.65,8.44 21.21,5.64 39.04,16.12 53.54,31.26 25.1,26.03 37.71,58.64 37.71,97.96 0,56.75 -27.51,97.81 -82.66,123.58 25.09,8.85 44.41,20.12 57.7,33.81 22,22.28 33.01,52.32 33.01,90.03 0,53.54 -19.32,93.93 -58.11,121.16 -29.12,20.54 -81.05,30.73 -156.06,30.73l-235.1 0zm85.34 -309.95l170.95 0c31.26,0 53.94,-5.37 68.02,-16.11 18.93,-14.22 28.31,-35.28 28.31,-63.45 0,-25.38 -7.49,-45.38 -22.39,-59.71 -7.91,-7.67 -16.64,-12.76 -26.58,-15.44 -9.78,-2.56 -25.49,-3.89 -47.35,-3.89l-170.95 0 0 158.59zm0 241.51l163.58 0c72.86,0 109.34,-29.77 109.34,-89.36 0,-29.52 -7.91,-50.98 -23.74,-63.99 -15.96,-13.15 -41.99,-19.71 -78.21,-19.71l-170.95 0 0 173.06zm1350.72 -239.09l251.17 0 0 307.53 -198.45 0c-53.41,0 -94.47,-4.42 -122.91,-13.4 -36.22,-11.29 -66.95,-33.15 -92.44,-65.63 -32.75,-42.27 -49.12,-104.51 -49.12,-186.93 0,-118.07 32.87,-197.23 98.64,-237.62 20.5,-12.34 43.2,-20.93 68.41,-25.89 25.1,-4.98 58.92,-7.51 101.45,-7.51l194.42 0 0 68.44 -187.72 0c-34.86,0 -59.42,1.18 -73.39,3.74 -14.08,2.43 -28.17,8.06 -42.39,16.64 -45.63,28.17 -68.44,86.67 -68.44,175.5 0,34.89 2.43,63.2 7.1,85.08 4.7,21.71 13.04,41.6 24.84,59.71 14.9,23.06 32.87,38.78 53.8,47.08 21.07,8.2 53.82,12.34 98.49,12.34l102.38 0 0 -170.68 -165.83 0 0 -68.41zm953.15 79.67l0 227.85 -85.34 0 0 -536.98 244.22 0c70.58,0 119.96,9.52 148.01,28.69 18.64,12.9 33.15,29.8 43.74,51.01 10.48,21.07 15.69,44 15.69,68.98 0,46.41 -15.01,82.49 -44.94,108.13 -16.51,13.97 -38.79,24.84 -66.67,32.61 36.22,16.12 60.9,35.04 73.94,57.18 13.12,22 21.33,58.21 24.82,108.55 2,32.72 3.74,52.47 4.82,59.03 1.21,6.59 4.31,14.08 9.26,22.81l-87.62 0c-3.07,-5.77 -5.09,-11.54 -5.89,-17.17 -0.82,-5.64 -2.7,-25.78 -5.91,-60.39 -5.24,-56.89 -20.92,-96.21 -47.09,-117.82 -26.31,-21.59 -71.39,-32.47 -135.28,-32.47l-85.73 0zm0 -68.41l153.38 0c45.49,0 75.68,-5.37 90.44,-16.11 21.07,-15.69 31.51,-39.04 31.51,-70.04 0,-35.69 -11.41,-60.53 -34.33,-74.33 -12.9,-7.91 -42.13,-11.8 -87.63,-11.8l-153.38 0 0 172.28zm916.93 296.26l222.19 -536.98 112.86 0 213.35 536.98 -91.12 0 -54.75 -140.08 -254.27 0 -57.03 140.08 -91.22 0zm277.19 -472.45l-103.05 263.92 200.88 0 -97.82 -263.92zm-36.21 -109.62l75.14 -96.61 86.01 0 -101.31 96.61 -59.85 0zm1276.53 277.77l0 68.44 -314.8 0 0 235.87 -85.33 0 0 -323.63c0,-31.26 1.46,-55.43 4.28,-72.19 2.95,-16.79 8.34,-32.9 16.11,-48.05 17.58,-34.22 43.06,-58.24 76.35,-72.18 33.26,-13.94 81.46,-20.92 144.66,-20.92l158.73 0 0 68.44 -166.25 0c-40.68,0.25 -69.79,4.42 -87.09,12.59 -21.46,9.8 -37.17,24.17 -46.83,43.21 -9.8,19.21 -14.62,44.94 -14.62,77.56l0 30.87 314.8 0zm604.13 304.31l0 -536.98 85.33 0 0 536.98 -85.33 0zm1118.05 -68.44l0 68.44 -166.65 0c-47.78,0 -85.62,-3.89 -113.65,-11.8 -55.68,-15.71 -96.88,-52.75 -123.33,-110.97 -19.18,-41.74 -28.69,-88.97 -28.69,-141.98 0,-62.66 13.01,-117.92 38.89,-165.57 21.49,-39.72 48.59,-67.35 81.34,-83.06 32.72,-15.69 79.67,-23.6 140.73,-23.6l171.36 0 0 68.44 -166.65 0c-36.5,0 -64.03,2.81 -82.67,8.44 -18.65,5.64 -34.22,16.09 -46.81,31.26 -14.11,16.76 -25.24,39.97 -33.3,69.51 -7.91,29.52 -11.93,61.85 -11.93,96.85 0,66.44 15.43,117.03 46.41,151.89 14.51,16.25 31.26,27.38 50.33,33.29 19.18,5.89 47.49,8.85 85.05,8.85l159.56 0zm555.72 68.44l222.19 -536.98 112.86 0 213.35 536.98 -91.12 0 -54.75 -140.08 -254.27 0 -57.03 140.08 -91.22 0zm277.2 -472.45l-103.06 263.92 200.88 0 -97.81 -263.92z"/>
   <polygon class="fil1" points="3025.56,0.01 3076.45,0.01 3076.45,3160.82 3025.56,3160.82 "/>
  </g>
 </g>
</svg>
